<svg width="40" height="40" viewBox="0 0 40 40" fill="none" xmlns="http://www.w3.org/2000/svg">
<path fill-rule="evenodd" clip-rule="evenodd" d="M2.61133 6.6709C2.61133 6.33938 2.74302 6.02144 2.97744 5.78701C3.21187 5.55259 3.52981 5.4209 3.86133 5.4209H5.82966C6.73381 5.42095 7.60751 5.74766 8.28984 6.34088C8.97218 6.9341 9.41722 7.75387 9.543 8.64923L9.64466 9.37423H32.9197C33.542 9.37424 34.1546 9.52914 34.7021 9.82497C35.2497 10.1208 35.715 10.5482 36.0561 11.0688C36.3972 11.5893 36.6034 12.1866 36.6561 12.8067C36.7088 13.4268 36.6064 14.0503 36.358 14.6209L31.9113 24.8342C31.6199 25.5038 31.1392 26.0737 30.5285 26.474C29.9177 26.8743 29.2033 27.0876 28.473 27.0876H12.8713C11.9672 27.0875 11.0935 26.7608 10.4111 26.1676C9.72881 25.5744 9.28377 24.7546 9.158 23.8592L7.068 8.99757C7.02618 8.69892 6.87781 8.42545 6.65023 8.22759C6.42266 8.02972 6.13122 7.9208 5.82966 7.9209H3.86299C3.53147 7.9209 3.21353 7.7892 2.97911 7.55478C2.74469 7.32036 2.61299 7.00242 2.61299 6.6709M9.998 11.8742L11.6347 23.5109C11.6765 23.8095 11.8249 24.083 12.0524 24.2809C12.28 24.4787 12.5714 24.5877 12.873 24.5876H28.4747C28.7181 24.5878 28.9562 24.5169 29.1599 24.3837C29.3636 24.2504 29.524 24.0606 29.6213 23.8376L34.0663 13.6209C34.1486 13.4309 34.1824 13.2234 34.1646 13.0171C34.1469 12.8108 34.0782 12.6121 33.9646 12.4389C33.8511 12.2658 33.6964 12.1235 33.5142 12.0249C33.3321 11.9264 33.1284 11.8746 32.9213 11.8742H9.998Z" fill="#FCFEFF"/>
<path d="M10.0576 32.4958C10.0576 31.7222 10.3649 30.9804 10.9119 30.4334C11.4589 29.8864 12.2007 29.5791 12.9743 29.5791C13.7478 29.5791 14.4897 29.8864 15.0367 30.4334C15.5837 30.9804 15.891 31.7222 15.891 32.4958C15.891 33.2693 15.5837 34.0112 15.0367 34.5582C14.4897 35.1051 13.7478 35.4124 12.9743 35.4124C12.2007 35.4124 11.4589 35.1051 10.9119 34.5582C10.3649 34.0112 10.0576 33.2693 10.0576 32.4958ZM27.201 29.5791C26.4274 29.5791 25.6855 29.8864 25.1386 30.4334C24.5916 30.9804 24.2843 31.7222 24.2843 32.4958C24.2843 33.2693 24.5916 34.0112 25.1386 34.5582C25.6855 35.1051 26.4274 35.4124 27.201 35.4124C27.9745 35.4124 28.7164 35.1051 29.2633 34.5582C29.8103 34.0112 30.1176 33.2693 30.1176 32.4958C30.1176 31.7222 29.8103 30.9804 29.2633 30.4334C28.7164 29.8864 27.9745 29.5791 27.201 29.5791Z" fill="#FCFEFF"/>
</svg>
