<svg width="40" height="40" viewBox="0 0 40 40" fill="none" xmlns="http://www.w3.org/2000/svg">
<path d="M32.5012 20.9566L20.0012 33.3366L7.50115 20.9566C6.67666 20.1542 6.02722 19.1899 5.59373 18.1243C5.16024 17.0587 4.95209 15.9148 4.98238 14.7648C5.01268 13.6148 5.28076 12.4835 5.76975 11.4421C6.25874 10.4008 6.95805 9.47198 7.82363 8.71419C8.68922 7.9564 9.70233 7.38604 10.7992 7.03903C11.896 6.69201 13.0528 6.57586 14.1968 6.69789C15.3407 6.81992 16.447 7.17749 17.4459 7.74807C18.4449 8.31865 19.3149 9.08989 20.0012 10.0132C20.6904 9.09659 21.5614 8.33209 22.5597 7.76757C23.5579 7.20304 24.662 6.85064 25.8027 6.73242C26.9434 6.61421 28.0963 6.73272 29.1891 7.08054C30.2819 7.42837 31.2912 7.99801 32.1537 8.75383C33.0163 9.50965 33.7135 10.4354 34.2019 11.473C34.6902 12.5107 34.9591 13.638 34.9917 14.7844C35.0243 15.9308 34.8199 17.0715 34.3914 18.1353C33.9628 19.1991 33.3193 20.1629 32.5012 20.9666" stroke="#FCFEFF" stroke-width="2.73438" stroke-linecap="round" stroke-linejoin="round"/>
</svg>
